<svg width="28" height="28" viewBox="0 0 28 28" fill="none" xmlns="http://www.w3.org/2000/svg">
<path d="M14.0003 27.3333C6.63633 27.3333 0.666992 21.364 0.666992 14C0.666992 6.63596 6.63633 0.666626 14.0003 0.666626C21.3643 0.666626 27.3337 6.63596 27.3337 14C27.3337 21.364 21.3643 27.3333 14.0003 27.3333ZM14.0003 24.6666C16.8293 24.6666 19.5424 23.5428 21.5428 21.5424C23.5432 19.542 24.667 16.8289 24.667 14C24.667 11.171 23.5432 8.45788 21.5428 6.45749C19.5424 4.4571 16.8293 3.33329 14.0003 3.33329C11.1713 3.33329 8.45824 4.4571 6.45785 6.45749C4.45747 8.45788 3.33366 11.171 3.33366 14C3.33366 16.8289 4.45747 19.542 6.45785 21.5424C8.45824 23.5428 11.1713 24.6666 14.0003 24.6666ZM9.33366 16.6666H16.667C16.8438 16.6666 17.0134 16.5964 17.1384 16.4714C17.2634 16.3463 17.3337 16.1768 17.3337 16C17.3337 15.8231 17.2634 15.6536 17.1384 15.5286C17.0134 15.4035 16.8438 15.3333 16.667 15.3333H11.3337C10.4496 15.3333 9.60176 14.9821 8.97664 14.357C8.35152 13.7319 8.00033 12.884 8.00033 12C8.00033 11.1159 8.35152 10.2681 8.97664 9.64294C9.60176 9.01782 10.4496 8.66663 11.3337 8.66663H12.667V5.99996H15.3337V8.66663H18.667V11.3333H11.3337C11.1568 11.3333 10.9873 11.4035 10.8623 11.5286C10.7372 11.6536 10.667 11.8231 10.667 12C10.667 12.1768 10.7372 12.3463 10.8623 12.4714C10.9873 12.5964 11.1568 12.6666 11.3337 12.6666H16.667C17.551 12.6666 18.3989 13.0178 19.024 13.6429C19.6491 14.2681 20.0003 15.1159 20.0003 16C20.0003 16.884 19.6491 17.7319 19.024 18.357C18.3989 18.9821 17.551 19.3333 16.667 19.3333H15.3337V22H12.667V19.3333H9.33366V16.6666Z" fill="#373737"/>
</svg>
