<svg width="20" height="18" viewBox="0 0 20 18" fill="none" xmlns="http://www.w3.org/2000/svg">
<path d="M10.0002 7.7502C6.89827 7.7502 2.50027 12.5455 2.50027 15.5724C2.50027 16.9356 3.54753 17.7501 5.30259 17.7501C7.21038 17.7501 8.47013 16.7704 10.0002 16.7704C11.5435 16.7704 12.8068 17.7501 14.6978 17.7501C16.4529 17.7501 17.5001 16.9356 17.5001 15.5724C17.5001 12.5455 13.1021 7.7502 10.0002 7.7502ZM4.24713 7.25762C3.84088 5.90412 2.58934 5.02757 1.45185 5.29944C0.314359 5.57131 -0.278213 6.88888 0.128033 8.24238C0.534279 9.59588 1.78583 10.4724 2.92332 10.2006C4.0608 9.92869 4.65338 8.61112 4.24713 7.25762ZM7.55647 6.44591C8.76505 6.12795 9.36973 4.49515 8.90724 2.79908C8.44474 1.103 7.09007 -0.0137843 5.88149 0.304181C4.67291 0.622146 4.06823 2.25494 4.53072 3.95102C4.99322 5.64709 6.34828 6.76427 7.55647 6.44591ZM18.5482 5.29983C17.4107 5.02796 16.1595 5.90451 15.7529 7.25801C15.3466 8.61152 15.9392 9.92908 17.0767 10.201C18.2142 10.4728 19.4653 9.59627 19.872 8.24277C20.2782 6.88927 19.6856 5.5717 18.5482 5.29983ZM12.4439 6.44591C13.6525 6.76388 15.0072 5.64709 15.4697 3.95102C15.9322 2.25494 15.3275 0.622537 14.1189 0.304181C12.9103 -0.014175 11.5556 1.103 11.0932 2.79908C10.6307 4.49515 11.2353 6.12795 12.4439 6.44591Z" fill="#616161"/>
</svg>
